<svg width="90" height="90" fill="none" xmlns="http://www.w3.org/2000/svg"><circle cx="45" cy="45" r="45" fill="#121936"/><path fill-rule="evenodd" clip-rule="evenodd" d="M45 30.2c-5.6 0-11.2 1-13.2 2.8-1.7 1.6-2.3 4.3-2.5 6v.3c0 .7.6 1.3 1.3 1.3l5.1-.4h.2c.7 0 1.3-.6 1.3-1.3v-2.4c0-.8.6-1.4 1.4-1.4h12.8c.8 0 1.4.6 1.4 1.4v2.4c0 .7.6 1.2 1.3 1.2h.2l5 .5c.8 0 1.4-.6 1.4-1.3v-.2c-.2-1.8-.8-4.5-2.5-6.1-2-1.9-7.6-2.8-13.2-2.8zm0 16a2.5 2.5 0 00-2.6 2.5c0 1.4 1.2 2.5 2.6 2.5 1.4 0 2.6-1.1 2.6-2.5s-1.2-2.5-2.6-2.5zm-2-5.5V39c0-.8-.7-1.5-1.6-1.5-.9 0-1.6.7-1.6 1.5v1.6l-8.9 8.9a3 3 0 00-1 2.2v2.5c0 1.3 1.2 2.4 2.7 2.4h.6v1.6c0 .8.8 1.5 1.7 1.5.9 0 1.6-.7 1.6-1.5v-1.6h17v1.6c0 .8.7 1.5 1.6 1.5 1 0 1.7-.7 1.7-1.5v-1.6h.6c1.5 0 2.6-1 2.6-2.4v-2.5a3 3 0 00-1-2.2l-8.8-9v-1.5c0-.8-.7-1.5-1.6-1.5-.9 0-1.6.7-1.6 1.5v1.6h-4zm2 3a5 5 0 015.2 5 5 5 0 01-5.2 5 5 5 0 01-5.2-5 5 5 0 015.2-5z" fill="#FFD74B"/></svg>