<svg xmlns="http://www.w3.org/2000/svg">
  <symbol viewBox="0 0 45 45" id="icon-phone">
    <circle cx="22.5" cy="22.5" r="22.5" fill="#121936"/>
    <path fill-rule="evenodd" clip-rule="evenodd" d="M22.5 15c-2.8 0-5.6.6-6.6 1.5-.9.8-1.1 2.2-1.2 3v.2c0 .3.2.6.6.6l2.6-.2c.4 0 .7-.3.7-.6v-1.3c0-.3.3-.6.7-.6h6.4c.4 0 .7.3.7.6v1.3c0 .3.3.6.7.6l2.6.2c.4 0 .6-.3.6-.6v-.2c0-.8-.3-2.2-1.2-3-1-1-3.8-1.4-6.6-1.4zm0 8.1c-.7 0-1.3.6-1.3 1.3 0 .6.6 1.2 1.3 1.2.7 0 1.3-.6 1.3-1.2 0-.7-.6-1.3-1.3-1.3zm-1-2.8v-.7c0-.5-.3-.8-.8-.8s-.8.3-.8.8v.7l-4.4 4.5c-.3.3-.5.7-.5 1v1.3c0 .7.6 1.3 1.3 1.3h.3v.7c0 .5.4.8.8.8.5 0 .8-.3.8-.8v-.7h8.6v.7c0 .5.3.8.8.8.4 0 .8-.3.8-.8v-.7h.3c.7 0 1.3-.6 1.3-1.3V26c0-.4-.2-.8-.5-1.1l-4.4-4.5v-.7c0-.5-.3-.8-.8-.8s-.8.3-.8.8v.7h-2zm1 1.6c1.4 0 2.6 1 2.6 2.5 0 1.3-1.2 2.4-2.6 2.4a2.5 2.5 0 01-2.6-2.4c0-1.4 1.2-2.5 2.6-2.5z"/>
  </symbol>

  <symbol viewBox="0 0 45 45" id="icon-email">
    <circle cx="22.5" cy="22.5" r="22.5" fill="#121936"/>
    <path fill-rule="evenodd" clip-rule="evenodd" d="M30.1 27.5l-4.3-4 4.3-4-.6-.6-6.3 5.8-6.2-5.8-.6.6 4.3 4-4.3 4 .6.6 4.3-4 2 1.7 1.9-1.7 4.3 4 .6-.6zM15.6 17.2c-.8 0-1.5.7-1.5 1.6v9.4c0 .9.7 1.6 1.5 1.6h15.3c.8 0 1.5-.7 1.5-1.6v-9.4c0-.9-.7-1.6-1.5-1.6H15.6z"/>
  </symbol>

  <symbol viewBox="0 0 11 21" id="icon-facebook">
    <path d="M7.5 20.8H2v-9.7H0V6.4h2c0-2.2.3-3.8 1.3-4.9A4.9 4.9 0 016.9 0h3.7v4.6h-3c-.1.6-.2 1.2-.1 1.8h3.1V11H7.5v9.7zm-4.2-1.1h3V10h3.1V7.5H6.3v-.6c0-1.5 0-2.8.8-3.3l.1-.1h2.2V1H7a3.8 3.8 0 00-2.7 1.1c-.8 1-1.2 2.5-1 4.7l.2.6H1.2V10h2.1v9.7z"/>
  </symbol>

  <symbol viewBox="0 0 23 12" id="icon-vk">
    <path d="M17.77 11.83a2.98 2.98 0 01-1.55-.47 7.57 7.57 0 01-1.32-1.15c-.32-.33-.87-.88-1.07-.88-.21 0-.36.69-.35 1.18 0 .33-.12.66-.35.9-.26.22-.57.35-.9.38H10.8c-2.05-.05-4-.85-5.51-2.25C2.56 7 .2 2.18.12 1.97a1.01 1.01 0 01.1-1.1C.52.61.88.48 1.25.5h3.12c.24.04.48.13.7.26.2.14.36.33.46.55.32.7.7 1.36 1.1 2 .97 1.5 1.4 1.85 1.56 1.92.17-.7.22-1.43.14-2.15.03-.33-.03-.66-.15-.96a.98.98 0 00-.58-.22l-.54-.51c-.1-.5.44-.93.82-1.1A6.38 6.38 0 0110.2.02h.52c.54-.01 1.07.04 1.6.15 1.26.27 1.21 1.3 1.16 2.49 0 .34-.03.75-.03 1.21v.36c-.03.33-.01.66.06.98a6.8 6.8 0 001.54-1.86c.43-.67.8-1.38 1.13-2.1a1.18 1.18 0 011.18-.72h3.46c.74 0 1.18.22 1.36.64.18.42.12 1.25-1.75 3.46l-.74.85a5.5 5.5 0 00-.92 1.19c.28.32.6.6.95.85.85.65 1.6 1.43 2.22 2.3a1.2 1.2 0 01.2 1.27 1.71 1.71 0 01-1.4.75l-2.81.03-.17-.03zM13.83 8.2c.66 0 1.24.6 1.86 1.22.33.37.7.7 1.11.97.31.21.67.32 1.04.32h.07l2.82-.04c.14 0 .28-.04.4-.1l-.07-.12a9.86 9.86 0 00-1.99-2.04c-.88-.75-1.33-1.1-1.39-1.68-.05-.58.37-1.08 1.2-2.04l.74-.83a8.05 8.05 0 001.52-2.21 4.16 4.16 0 00-.5 0H17.4a.4.4 0 00-.18 0c-.34.8-.75 1.56-1.22 2.29-1.4 2.11-2.06 2.4-2.53 2.4a.88.88 0 01-.41-.1c-.75-.44-.75-1.39-.7-2.08v-.32c0-.49 0-.9.03-1.27.06-1.26 0-1.27-.28-1.33-.45-.1-.91-.14-1.38-.12h-.5c-.48-.01-.95.01-1.42.07.07.05.13.12.19.19.3.49.46 1.06.43 1.63.1 1.24.05 2.85-.74 3.24-.14.07-.29.1-.44.1-.7 0-1.38-.66-2.54-2.44-.45-.69-.85-1.4-1.2-2.14l-.05-.08a.9.9 0 00-.24-.08H1.2c.44.92 2.51 4.97 4.84 7.09 1.3 1.2 2.99 1.9 4.76 1.97h1.37a.74.74 0 00.2-.07v-.07c0-.2 0-1.95 1.17-2.25.1-.04.19-.06.29-.08z"/>
  </symbol>

  <symbol viewBox="0 0 18 18" id="icon-instagram">
    <path d="M12.96 1.8a3.25 3.25 0 013.24 3.24v7.92a3.25 3.25 0 01-3.24 3.24H5.04a3.25 3.25 0 01-3.23-3.24V5.04A3.25 3.25 0 015.04 1.8h7.92zm0-1.08H5.04A4.32 4.32 0 00.72 5.04v7.92a4.32 4.32 0 004.32 4.32h7.92a4.32 4.32 0 004.32-4.32V5.04A4.32 4.32 0 0012.96.72z"/>
    <path d="M9 5.82a3.19 3.19 0 110 6.38 3.19 3.19 0 010-6.38zm0-1.08a4.27 4.27 0 100 8.54 4.27 4.27 0 000-8.54zM13.43 5.56a.96.96 0 100-1.93.96.96 0 000 1.93z"/>
  </symbol>

  <symbol viewBox="0 0 19 19" id="icon-call">
    <path d="M9.77 8.22c0 .2.16.34.35.34.38 0 .7.32.7.7 0 .18.15.33.34.33.19 0 .34-.15.34-.33 0-.76-.62-1.37-1.38-1.37a.34.34 0 00-.35.33zm5.56 1.37c.2 0 .34-.15.34-.33 0-3.03-2.49-5.5-5.55-5.5a.34.34 0 00-.35.34c0 .19.16.34.35.34a4.85 4.85 0 014.87 4.82c0 .18.15.33.34.33z" fill="#161C35"/>
    <path d="M12.9 9.26c0 .18.16.33.35.33.18 0 .34-.15.34-.33 0-1.9-1.56-3.44-3.47-3.44a.34.34 0 00-.35.34c0 .2.16.34.35.34a2.78 2.78 0 012.78 2.76zM10.12 1.7a.34.34 0 00-.35.34c0 .18.16.33.35.33a6.93 6.93 0 016.96 6.89c0 .18.15.33.34.33.19 0 .34-.15.34-.33a7.61 7.61 0 00-7.64-7.56zm3.33 11.11l-.45.24c-.75.41-1.34 1.53-2.27.69L8.3 11.3 6.2 9.26c-1.06-1.34.13-1.65.54-2.4l.24-.44a2.57 2.57 0 00-.45-3.1c-.5-.49-1.16-.76-1.87-.76-.7 0-1.37.27-1.87.76l-.17.18c-.93.91-1.03 2.48-.3 4.42A16.39 16.39 0 006.2 13.6c2.77 2.73 5.85 4.31 8.06 4.31.88 0 1.62-.25 2.14-.77l.18-.17a2.6 2.6 0 000-3.7c-.82-.81-2.1-1-3.13-.45z" fill="#161C35"/>
  </symbol>

  <symbol viewBox="0 0 19 17" id="icon-mail">
    <path d="M2 3.3l6.8 4.3.8.2.8-.2 6.7-4.3c.5-.3.9-1.3.1-1.3H2c-.8 0-.4 1 0 1.3zm15.4 2.3l-7 4.3c-.3.2-.5.2-.8.2-.3 0-.5 0-.8-.2l-7-4.3c-.3-.2-.3 0-.3.3v7.6c0 .5.5 1 .9 1h14.4c.4 0 .9-.5.9-1V6c0-.2 0-.5-.3-.3z" fill="#161C35"/>
  </symbol>

  <symbol viewBox="0 0 14 14" id="icon-user">
    <path opacity=".1" d="M4.4 4c0 1.5 1.2 2.7 2.6 2.7 1.4 0 2.6-1.2 2.6-2.8 0-1.5-1.2-2.7-2.6-2.7a2.7 2.7 0 00-2.6 2.7zm7.3 8.8h.6v-.6c0-2.4-1.9-4.3-4.1-4.3H5.8c-2.2 0-4 2-4 4.3v.6h9.9z" fill="#192144"/>
  </symbol>

  <symbol viewBox="0 0 21 23" id="icon-plane">
    <g clip-path="url(#clip0)"><path d="M16.8 2c-.7.3-1.5.4-1.7 1L12.9 7 1.6 9.8l-.4 1.3 8.6.9-1.4 3.6-3.3.8-.8 1.4 2.3.3.3 1.1c.1.4.5.7.9.6l1-.2 1.4 2.1.8-1.4-.8-3.5 2.4-3 4.5 8 .9-1.1-2.8-12 2.6-4c.3-.4 0-1.2-.1-2-.1-.4-.6-.7-1-.6z"/></g>
    <defs><clipPath id="clip0"><path fill="#fff" transform="translate(0 1)" d="M0 0h20.8v21.1H0z"/></clipPath></defs>
  </symbol>

  <symbol viewBox="0 0 18 21" id="icon-bus">
    <g clip-path="url(#clip0)"><path d="M4.3 14c0-.4-.1-.8-.4-1-.3-.3-.6-.4-1-.4s-.7.1-1 .4c-.3.2-.4.6-.4 1 0 .3.1.7.4 1 .3.2.6.3 1 .3s.7-.1 1-.4c.3-.2.4-.6.4-1zm11.4 0c0-.4-.1-.8-.4-1-.3-.3-.6-.4-1-.4s-.8.1-1 .4c-.3.2-.4.6-.4 1 0 .3.1.7.4 1 .2.2.6.3 1 .3s.7-.1 1-.4c.3-.2.4-.6.4-1zm-.5-4.3l-.8-4.1c0-.2-.1-.3-.3-.4a.7.7 0 00-.4-.2H3.5c-.2 0-.3 0-.4.2-.2 0-.3.2-.3.4L2 9.7c0 .2 0 .4.2.6l.5.2h11.8c.2 0 .4 0 .5-.2.2-.2.2-.4.2-.6zm-2.5-6.6s0-.2-.2-.3a.5.5 0 00-.4-.2h-7c-.2 0-.3 0-.4.2l-.2.3c0 .2 0 .3.2.4l.4.2h7a.5.5 0 00.6-.6zM17 11v6.5h-1.4v1.3c0 .4-.1.8-.4 1-.3.3-.6.4-1 .4s-.8-.1-1-.4c-.3-.2-.4-.6-.4-1v-1.3H4.3v1.3c0 .4-.1.8-.4 1-.3.3-.6.4-1 .4s-.7-.1-1-.4c-.3-.2-.4-.6-.4-1v-1.3H.1v-6.5c0-.8 0-1.6.3-2.4l1.1-4.8c0-.6.4-1 1-1.5.7-.4 1.6-.7 2.6-1a17.3 17.3 0 017 0c1 .3 1.9.6 2.5 1 .7.4 1 1 1.1 1.5l1.2 4.8.2 2.4z"/></g>
    <defs><clipPath id="clip0"><path fill="#fff" transform="translate(0 1)" d="M0 0h17v19.2H0z"/></clipPath></defs>
  </symbol>

  <symbol viewBox="0 0 25 24" id="icon-bicycle">
    <path d="M18.3 21a4.21 4.21 0 01-3.92-2.66 4.37 4.37 0 01.92-4.7 4.23 4.23 0 017.26 3.05c0 1.14-.45 2.24-1.25 3.05-.8.8-1.88 1.26-3 1.26zm0-7.13a2.75 2.75 0 00-2.55 1.74 2.85 2.85 0 00.6 3.07 2.76 2.76 0 004.73-2c0-.74-.3-1.45-.81-1.98a2.76 2.76 0 00-1.96-.82zM6.1 21a4.21 4.21 0 01-3.92-2.66 4.37 4.37 0 01.92-4.7 4.23 4.23 0 017.26 3.05c0 1.14-.45 2.24-1.25 3.05-.8.8-1.88 1.26-3 1.26zm0-7.13a2.75 2.75 0 00-2.56 1.74 2.85 2.85 0 00.6 3.07 2.76 2.76 0 004.74-2c0-.74-.3-1.45-.82-1.98a2.76 2.76 0 00-1.96-.82zM15.16 6a1.46 1.46 0 001.37-.93c.08-.18.11-.38.11-.57a1.5 1.5 0 00-.9-1.39 1.46 1.46 0 00-1.93.81 1.52 1.52 0 00.79 1.96c.18.08.37.12.56.12z"/>
    <path d="M17.36 9h-2.02a.18.18 0 01-.16-.1L13.7 6.18a1.45 1.45 0 00-1.05-.77 1.41 1.41 0 00-1.23.4L8.2 9.11c-.27.28-.43.66-.43 1.05 0 .82.58 1.1.85 1.27a146.32 146.32 0 012.82 1.72c.02.02.03.06.03.09v3.24c0 .4.3.75.7.77a.73.73 0 00.72-.45c.04-.1.06-.2.06-.3v-4.03a.76.76 0 00-.31-.61l-1.71-1.25a.19.19 0 01-.08-.13.19.19 0 01.05-.15l1.94-2.1a.19.19 0 01.16-.06.18.18 0 01.14.1l1 1.84a.74.74 0 00.65.39h2.6a.73.73 0 00.53-.23.75.75 0 00-.56-1.27z"/>
  </symbol>

  <symbol viewBox="0 0 21 24" id="icon-afoot">
    <path d="M14.98 5.76c.95 0 1.72-.86 1.72-1.92s-.77-1.92-1.72-1.92-1.73.86-1.73 1.92.78 1.92 1.73 1.92zM13.92 10.53c.2.33.48.58.81.72.34.15.7.17 1.04.08l2.86-.8-.42-1.86-2.85.8-1.2-1.99a1.73 1.73 0 00-1.09-.82l-3.3-.74a1.56 1.56 0 00-1.1.16c-.34.18-.61.49-.78.87l-1.43 3.18 1.54.86L9.43 7.8l1.69.38-4.38 8.14H2.93v1.92h3.81c.6 0 1.17-.36 1.48-.93l1.65-3.07 4.45 1 1.56 5.22 1.63-.6-1.56-5.23c-.1-.33-.27-.61-.5-.84-.22-.22-.5-.37-.8-.44l-2.61-.58 1.52-2.84.36.6z"/>
  </symbol>

  <symbol viewBox="0 0 60 60" id="icon-level">
    <circle r="28" cx="30" cy="30" fill="transparent" transform="rotate(-90 30 30)" stroke-linecap="round"/>
  </symbol>

  <symbol viewBox="0 0 90 90" id="icon-map">
    <circle cx="45" cy="45" r="45" fill="#121936"/>
    <path d="M45 24c-8.7 0-15.75 7.05-15.75 15.75 0 10.12 7.6 14.54 9.29 16.56C42.58 61.15 42.8 66 45 66c2.2 0 2.42-4.85 6.46-9.7 1.68-2.01 9.29-6.43 9.29-16.55C60.75 31.05 53.7 24 45 24zm0 26.25a10.5 10.5 0 110-21 10.5 10.5 0 010 21zm0-15.75A5.25 5.25 0 1045 45a5.25 5.25 0 000-10.5z" fill="#FFD74B"/>
    <circle cx="45" cy="39.75" fill="#161C35" r="1.75"/>
  </symbol>

  <symbol viewBox="0 0 28 28" id="icon-businessman">
    <path d="M23.4 23.2V20a5.8 5.8 0 00-2.8-5c-1-.8-3-.9-4-.9l-2 2.3.7 1.7v4L14 23.5 12.7 22v-4l.9-1.7-2.3-2.3c-1 0-3 .1-4 .8-1 .5-1.5 1.3-2 2.3-.5 1-.7 1.7-.7 2.8v3.3s3.5 1.5 9.4 1.5 9.4-1.5 9.4-1.5zM14 3.4c-2.5 0-4 2.4-3.6 5.1.4 2.7 1.7 4.6 3.6 4.6 1.9 0 3.2-2 3.6-4.6.4-2.8-1-5-3.6-5z" fill="#132576"/>
  </symbol>
</svg>
