<svg width="45" height="45" fill="none" xmlns="http://www.w3.org/2000/svg"><circle cx="22.5" cy="22.5" r="22.5" fill="#121936"/><path fill-rule="evenodd" clip-rule="evenodd" d="M22.5 15c-2.8 0-5.6.6-6.6 1.5-.9.8-1.1 2.2-1.2 3v.2c0 .3.2.6.6.6l2.6-.2c.4 0 .7-.3.7-.6v-1.3c0-.3.3-.6.7-.6h6.4c.4 0 .7.3.7.6v1.3c0 .3.3.6.7.6l2.6.2c.4 0 .6-.3.6-.6v-.2c0-.8-.3-2.2-1.2-3-1-1-3.8-1.4-6.6-1.4zm0 8.1c-.7 0-1.3.6-1.3 1.3 0 .6.6 1.2 1.3 1.2.7 0 1.3-.6 1.3-1.2 0-.7-.6-1.3-1.3-1.3zm-1-2.8v-.7c0-.5-.3-.8-.8-.8s-.8.3-.8.8v.7l-4.4 4.5c-.3.3-.5.7-.5 1v1.3c0 .7.6 1.3 1.3 1.3h.3v.7c0 .5.4.8.8.8.5 0 .8-.3.8-.8v-.7h8.6v.7c0 .5.3.8.8.8.4 0 .8-.3.8-.8v-.7h.3c.7 0 1.3-.6 1.3-1.3V26c0-.4-.2-.8-.5-1.1l-4.4-4.5v-.7c0-.5-.3-.8-.8-.8s-.8.3-.8.8v.7h-2zm1 1.6c1.4 0 2.6 1 2.6 2.5 0 1.3-1.2 2.4-2.6 2.4a2.5 2.5 0 01-2.6-2.4c0-1.4 1.2-2.5 2.6-2.5z"/></svg>
