<svg width="18" height="20" fill="none" xmlns="http://www.w3.org/2000/svg"><g clip-path="url(#clip0)"><path opacity=".15" d="M4.5 13.57c0-.4-.15-.73-.44-1-.3-.29-.64-.43-1.06-.43-.41 0-.77.14-1.06.42-.3.28-.44.62-.44 1.01 0 .4.15.73.44 1.01.3.28.65.42 1.06.42.42 0 .77-.14 1.06-.42.3-.28.44-.61.44-1zm12 0c0-.4-.15-.73-.44-1-.3-.29-.65-.43-1.06-.43-.42 0-.77.14-1.06.42-.3.28-.44.62-.44 1.01 0 .4.14.73.44 1.01.29.28.64.42 1.06.42.41 0 .76-.14 1.06-.42.29-.28.44-.61.44-1zm-.54-4.42l-.85-4.28a.74.74 0 00-.74-.58H3.63a.74.74 0 00-.74.58l-.84 4.28c-.04.22.02.42.17.6.14.16.33.25.57.25h12.44c.23 0 .42-.09.57-.26.15-.17.2-.37.17-.59zM13.3 2.32a.5.5 0 00-.16-.38.56.56 0 00-.4-.15h-7.5a.56.56 0 00-.4.15.5.5 0 00-.16.38c0 .15.05.28.16.38.11.1.24.16.4.16h7.5c.15 0 .29-.05.4-.16a.5.5 0 00.16-.38zm4.69 8.1v6.72h-1.5v1.43c0 .4-.15.73-.44 1.01-.3.28-.65.42-1.06.42-.42 0-.77-.14-1.06-.42-.3-.28-.44-.61-.44-1v-1.44h-9v1.43c0 .4-.15.73-.44 1.01-.3.28-.64.42-1.06.42-.41 0-.77-.14-1.06-.42-.3-.28-.44-.61-.44-1v-1.44H0v-6.73c0-.83.1-1.66.3-2.49l1.2-5.06c.07-.58.45-1.1 1.14-1.53.7-.44 1.6-.77 2.7-1C6.44.11 7.66 0 9 0c1.33 0 2.55.11 3.66.33 1.1.23 2 .56 2.7 1 .69.44 1.07.95 1.14 1.53l1.23 5.06c.18.76.27 1.6.27 2.5z" fill="#1D2E5B"/></g><defs><clipPath id="clip0"><path fill="#fff" d="M0 0h18v20H0z"/></clipPath></defs></svg>