<svg width="25" height="25" fill="none" xmlns="http://www.w3.org/2000/svg"><path opacity=".15" d="M18.95 21.88a4.5 4.5 0 110-8.99 4.5 4.5 0 010 8.98zm0-7.43a2.93 2.93 0 100 5.86 2.93 2.93 0 000-5.86zM6.05 21.88a4.5 4.5 0 110-8.99 4.5 4.5 0 010 8.98zm0-7.43a2.93 2.93 0 100 5.86 2.93 2.93 0 000-5.86zM15.63 6.25a1.56 1.56 0 001.56-1.57 1.54 1.54 0 00-2.15-1.44 1.56 1.56 0 00.59 3.01z" fill="#1D2E5B"/><path opacity=".15" d="M17.95 9.38H15.8a.2.2 0 01-.17-.1l-1.55-2.85a1.51 1.51 0 00-2.41-.38L8.27 9.5c-.29.3-.45.69-.46 1.1 0 .85.62 1.15.9 1.32 1.4.8 2.38 1.39 2.91 1.71a.2.2 0 01.1.17v3.37c0 .43.32.79.74.8a.78.78 0 00.82-.77v-4.2a.78.78 0 00-.32-.64l-1.81-1.3a.2.2 0 01-.07-.22.2.2 0 01.04-.07l2.05-2.19a.2.2 0 01.32.04l1.06 1.93a.78.78 0 00.68.4h2.74a.78.78 0 00.78-.82.8.8 0 00-.8-.74z" fill="#1D2E5B"/></svg>